<?xml version="1.0" encoding="UTF-8"?>
<svg id="Layer_1" xmlns="http://www.w3.org/2000/svg" version="1.1" viewBox="0 0 512 512">
  <!-- Generator: Adobe Illustrator 30.0.0, SVG Export Plug-In . SVG Version: 2.1.1 Build 123)  -->
  <defs>
    <style>
      .st0 {
        fill: #fff;
      }
    </style>
  </defs>
  <path class="st0" d="M256.8,488.5c-10.9,0-21.8-2.8-31.3-8.2l-151.4-85.3c-20.4-11.5-32.8-33.2-32.4-56.6l2.9-166.3c.4-22.2,12-42.3,31.1-53.7L222.2,31c9.9-5.9,21.2-9,32.6-9s22.4,3,32.2,8.7l149.4,87.4c19.5,11.4,31.6,32.5,31.6,55v163.1c0,22.3-11.9,43.2-30.9,54.7l-147.4,88.5c-9.9,5.9-21.3,9.1-32.8,9.1Z"/>
  <path d="M255.8,44.8c-6.2,0-12.4,1.4-17.1,4.2l-152.8,88.4c-9.6,5.5-9.6,14.3,0,19.8l152.8,88.4c9.6,5.5,24.7,5.5,34.3,0l152.8-88.4c9.6-5.5,9.6-14.3,0-19.8l-152.8-88.4c-4.8-2.8-11-4.2-17.1-4.2h0ZM254.9,97.9c9,0,17.1,2.2,24.3,6.2,4.9,2.8,8.1,5.9,9.7,9.4,1.5,3.5,1.6,8.1.3,13.9l-1.6,5.7c-1.1,4.1-1.3,7-.7,8.8.6,1.8,2,3.3,4.2,4.5l3.4,1.9-33.2,18.6-3.7-2.1c-4.1-2.3-6.7-4.9-7.9-7.8-1.2-2.9-1-7.6.6-14l1.5-5.7c.9-3.4,1-6.2.3-8.4-.7-2.2-2.1-4-4.4-5.3-3.5-2-7.7-2.7-12.6-2.1-5,.5-10.1,2.3-15.4,5.2-5,2.8-9.5,6.3-13.6,10.5-4.1,4.2-7.6,8.9-10.6,14.3l-23.7-13.3c5.3-5.3,10.5-10,15.7-14,5.1-4,10.6-7.6,16.3-10.8,15-8.4,28.9-13.4,41.8-15,3.2-.4,6.3-.6,9.3-.6h0ZM305.7,154.6l26.8,15-33.2,18.6-26.8-15,33.2-18.6h0ZM75.7,173.8c-5.8-.2-9.7,4.3-9.7,12.3v157.7c0,11.1,7.6,24.2,17.1,29.7l146.9,84.8c9.6,5.5,17.1,1.2,17.1-9.9v-157.7c0-11.1-7.6-24.2-17.1-29.7l-146.9-84.8c-2.7-1.6-5.2-2.3-7.5-2.4h0ZM436.4,173.8c-2.2,0-4.8.8-7.5,2.4l-146.9,84.8c-9.6,5.5-17.1,18.6-17.1,29.7v157.7c0,11,7.6,15.4,17.1,9.9l146.9-84.8c9.6-5.5,17.1-18.6,17.1-29.7v-157.7c0-7.9-3.9-12.4-9.7-12.3h0ZM114.9,237.6c6.6,1.4,12.5,3,18,5,5.4,2,10.6,4.4,15.7,7.3,13.2,7.6,23.3,16.3,30.2,26.1,6.9,9.7,10.4,20,10.4,31s-1.1,10.1-3.2,13.4c-2.1,3.2-5.7,5.9-10.8,8.1l-5.2,1.9c-3.7,1.4-6.1,2.9-7.2,4.5-1.1,1.5-1.7,3.5-1.7,6.1v3.9l-29.3-16.9v-4.2c0-4.7.9-8.4,2.7-11,1.8-2.7,5.6-5.1,11.3-7.5l5.2-2c3.1-1.2,5.3-2.7,6.7-4.6,1.5-1.8,2.2-4,2.2-6.7,0-4-1.3-7.9-3.9-11.7-2.6-3.8-6.2-7-10.9-9.7-4.4-2.5-9.1-4.3-14.2-5.3-5.1-1-10.4-1.3-15.9-.6v-27.1h0ZM384.4,246.2c1.5,0,2.9.2,4.2.5,6.9,1.7,10.4,8,10.4,19s-1.1,11.3-3.2,17c-2.1,5.6-5.7,12.5-10.8,20.6l-5.2,7.9c-3.7,5.7-6.1,10-7.2,12.8-1.1,2.8-1.7,5.5-1.7,8.1v3.9l-29.3,16.9v-4.2c0-4.7.9-9.4,2.7-14.1,1.8-4.7,5.6-11.5,11.3-20.5l5.2-8c3.1-4.8,5.3-8.9,6.7-12.4,1.5-3.5,2.2-6.6,2.2-9.2,0-4-1.3-6.4-3.9-7.2-2.6-.8-6.2.1-10.9,2.8-4.4,2.5-9.1,6.2-14.2,11.1-5.1,4.8-10.4,10.8-15.9,17.7v-27.1c6.6-6.2,12.5-11.4,18-15.7,5.4-4.3,10.6-7.9,15.7-10.8,10.7-6.2,19.4-9.3,26-9.3h0ZM131.7,340.7l29.3,16.9v30.7l-29.3-16.9v-30.7h0ZM371,348.8v30.7l-29.3,16.9v-30.7l29.3-16.9h0Z"/>
</svg>